G75*
%MOIN*%
%OFA0B0*%
%FSLAX24Y24*%
%IPPOS*%
%LPD*%
%AMOC8*
5,1,8,0,0,1.08239X$1,22.5*
%
%ADD10C,0.0000*%
%ADD11C,0.0060*%
%ADD12R,0.0500X0.0500*%
%ADD13C,0.0050*%
%ADD14C,0.0080*%
%ADD15C,0.0040*%
D10*
X000100Y000100D02*
X013880Y000100D01*
X013880Y017817D01*
X000100Y017817D01*
X000100Y000100D01*
X006242Y001675D02*
X006244Y001722D01*
X006250Y001768D01*
X006260Y001814D01*
X006273Y001859D01*
X006291Y001902D01*
X006312Y001944D01*
X006336Y001984D01*
X006364Y002021D01*
X006395Y002056D01*
X006429Y002089D01*
X006465Y002118D01*
X006504Y002144D01*
X006545Y002167D01*
X006588Y002186D01*
X006632Y002202D01*
X006677Y002214D01*
X006723Y002222D01*
X006770Y002226D01*
X006816Y002226D01*
X006863Y002222D01*
X006909Y002214D01*
X006954Y002202D01*
X006998Y002186D01*
X007041Y002167D01*
X007082Y002144D01*
X007121Y002118D01*
X007157Y002089D01*
X007191Y002056D01*
X007222Y002021D01*
X007250Y001984D01*
X007274Y001944D01*
X007295Y001902D01*
X007313Y001859D01*
X007326Y001814D01*
X007336Y001768D01*
X007342Y001722D01*
X007344Y001675D01*
X007342Y001628D01*
X007336Y001582D01*
X007326Y001536D01*
X007313Y001491D01*
X007295Y001448D01*
X007274Y001406D01*
X007250Y001366D01*
X007222Y001329D01*
X007191Y001294D01*
X007157Y001261D01*
X007121Y001232D01*
X007082Y001206D01*
X007041Y001183D01*
X006998Y001164D01*
X006954Y001148D01*
X006909Y001136D01*
X006863Y001128D01*
X006816Y001124D01*
X006770Y001124D01*
X006723Y001128D01*
X006677Y001136D01*
X006632Y001148D01*
X006588Y001164D01*
X006545Y001183D01*
X006504Y001206D01*
X006465Y001232D01*
X006429Y001261D01*
X006395Y001294D01*
X006364Y001329D01*
X006336Y001366D01*
X006312Y001406D01*
X006291Y001448D01*
X006273Y001491D01*
X006260Y001536D01*
X006250Y001582D01*
X006244Y001628D01*
X006242Y001675D01*
X006242Y004037D02*
X006244Y004084D01*
X006250Y004130D01*
X006260Y004176D01*
X006273Y004221D01*
X006291Y004264D01*
X006312Y004306D01*
X006336Y004346D01*
X006364Y004383D01*
X006395Y004418D01*
X006429Y004451D01*
X006465Y004480D01*
X006504Y004506D01*
X006545Y004529D01*
X006588Y004548D01*
X006632Y004564D01*
X006677Y004576D01*
X006723Y004584D01*
X006770Y004588D01*
X006816Y004588D01*
X006863Y004584D01*
X006909Y004576D01*
X006954Y004564D01*
X006998Y004548D01*
X007041Y004529D01*
X007082Y004506D01*
X007121Y004480D01*
X007157Y004451D01*
X007191Y004418D01*
X007222Y004383D01*
X007250Y004346D01*
X007274Y004306D01*
X007295Y004264D01*
X007313Y004221D01*
X007326Y004176D01*
X007336Y004130D01*
X007342Y004084D01*
X007344Y004037D01*
X007342Y003990D01*
X007336Y003944D01*
X007326Y003898D01*
X007313Y003853D01*
X007295Y003810D01*
X007274Y003768D01*
X007250Y003728D01*
X007222Y003691D01*
X007191Y003656D01*
X007157Y003623D01*
X007121Y003594D01*
X007082Y003568D01*
X007041Y003545D01*
X006998Y003526D01*
X006954Y003510D01*
X006909Y003498D01*
X006863Y003490D01*
X006816Y003486D01*
X006770Y003486D01*
X006723Y003490D01*
X006677Y003498D01*
X006632Y003510D01*
X006588Y003526D01*
X006545Y003545D01*
X006504Y003568D01*
X006465Y003594D01*
X006429Y003623D01*
X006395Y003656D01*
X006364Y003691D01*
X006336Y003728D01*
X006312Y003768D01*
X006291Y003810D01*
X006273Y003853D01*
X006260Y003898D01*
X006250Y003944D01*
X006244Y003990D01*
X006242Y004037D01*
X006163Y011124D02*
X006165Y011174D01*
X006171Y011224D01*
X006181Y011273D01*
X006195Y011321D01*
X006212Y011368D01*
X006233Y011413D01*
X006258Y011457D01*
X006286Y011498D01*
X006318Y011537D01*
X006352Y011574D01*
X006389Y011608D01*
X006429Y011638D01*
X006471Y011665D01*
X006515Y011689D01*
X006561Y011710D01*
X006608Y011726D01*
X006656Y011739D01*
X006706Y011748D01*
X006755Y011753D01*
X006806Y011754D01*
X006856Y011751D01*
X006905Y011744D01*
X006954Y011733D01*
X007002Y011718D01*
X007048Y011700D01*
X007093Y011678D01*
X007136Y011652D01*
X007177Y011623D01*
X007216Y011591D01*
X007252Y011556D01*
X007284Y011518D01*
X007314Y011478D01*
X007341Y011435D01*
X007364Y011391D01*
X007383Y011345D01*
X007399Y011297D01*
X007411Y011248D01*
X007419Y011199D01*
X007423Y011149D01*
X007423Y011099D01*
X007419Y011049D01*
X007411Y011000D01*
X007399Y010951D01*
X007383Y010903D01*
X007364Y010857D01*
X007341Y010813D01*
X007314Y010770D01*
X007284Y010730D01*
X007252Y010692D01*
X007216Y010657D01*
X007177Y010625D01*
X007136Y010596D01*
X007093Y010570D01*
X007048Y010548D01*
X007002Y010530D01*
X006954Y010515D01*
X006905Y010504D01*
X006856Y010497D01*
X006806Y010494D01*
X006755Y010495D01*
X006706Y010500D01*
X006656Y010509D01*
X006608Y010522D01*
X006561Y010538D01*
X006515Y010559D01*
X006471Y010583D01*
X006429Y010610D01*
X006389Y010640D01*
X006352Y010674D01*
X006318Y010711D01*
X006286Y010750D01*
X006258Y010791D01*
X006233Y010835D01*
X006212Y010880D01*
X006195Y010927D01*
X006181Y010975D01*
X006171Y011024D01*
X006165Y011074D01*
X006163Y011124D01*
X001124Y016242D02*
X001126Y016289D01*
X001132Y016335D01*
X001142Y016381D01*
X001155Y016426D01*
X001173Y016469D01*
X001194Y016511D01*
X001218Y016551D01*
X001246Y016588D01*
X001277Y016623D01*
X001311Y016656D01*
X001347Y016685D01*
X001386Y016711D01*
X001427Y016734D01*
X001470Y016753D01*
X001514Y016769D01*
X001559Y016781D01*
X001605Y016789D01*
X001652Y016793D01*
X001698Y016793D01*
X001745Y016789D01*
X001791Y016781D01*
X001836Y016769D01*
X001880Y016753D01*
X001923Y016734D01*
X001964Y016711D01*
X002003Y016685D01*
X002039Y016656D01*
X002073Y016623D01*
X002104Y016588D01*
X002132Y016551D01*
X002156Y016511D01*
X002177Y016469D01*
X002195Y016426D01*
X002208Y016381D01*
X002218Y016335D01*
X002224Y016289D01*
X002226Y016242D01*
X002224Y016195D01*
X002218Y016149D01*
X002208Y016103D01*
X002195Y016058D01*
X002177Y016015D01*
X002156Y015973D01*
X002132Y015933D01*
X002104Y015896D01*
X002073Y015861D01*
X002039Y015828D01*
X002003Y015799D01*
X001964Y015773D01*
X001923Y015750D01*
X001880Y015731D01*
X001836Y015715D01*
X001791Y015703D01*
X001745Y015695D01*
X001698Y015691D01*
X001652Y015691D01*
X001605Y015695D01*
X001559Y015703D01*
X001514Y015715D01*
X001470Y015731D01*
X001427Y015750D01*
X001386Y015773D01*
X001347Y015799D01*
X001311Y015828D01*
X001277Y015861D01*
X001246Y015896D01*
X001218Y015933D01*
X001194Y015973D01*
X001173Y016015D01*
X001155Y016058D01*
X001142Y016103D01*
X001132Y016149D01*
X001126Y016195D01*
X001124Y016242D01*
X011754Y001675D02*
X011756Y001722D01*
X011762Y001768D01*
X011772Y001814D01*
X011785Y001859D01*
X011803Y001902D01*
X011824Y001944D01*
X011848Y001984D01*
X011876Y002021D01*
X011907Y002056D01*
X011941Y002089D01*
X011977Y002118D01*
X012016Y002144D01*
X012057Y002167D01*
X012100Y002186D01*
X012144Y002202D01*
X012189Y002214D01*
X012235Y002222D01*
X012282Y002226D01*
X012328Y002226D01*
X012375Y002222D01*
X012421Y002214D01*
X012466Y002202D01*
X012510Y002186D01*
X012553Y002167D01*
X012594Y002144D01*
X012633Y002118D01*
X012669Y002089D01*
X012703Y002056D01*
X012734Y002021D01*
X012762Y001984D01*
X012786Y001944D01*
X012807Y001902D01*
X012825Y001859D01*
X012838Y001814D01*
X012848Y001768D01*
X012854Y001722D01*
X012856Y001675D01*
X012854Y001628D01*
X012848Y001582D01*
X012838Y001536D01*
X012825Y001491D01*
X012807Y001448D01*
X012786Y001406D01*
X012762Y001366D01*
X012734Y001329D01*
X012703Y001294D01*
X012669Y001261D01*
X012633Y001232D01*
X012594Y001206D01*
X012553Y001183D01*
X012510Y001164D01*
X012466Y001148D01*
X012421Y001136D01*
X012375Y001128D01*
X012328Y001124D01*
X012282Y001124D01*
X012235Y001128D01*
X012189Y001136D01*
X012144Y001148D01*
X012100Y001164D01*
X012057Y001183D01*
X012016Y001206D01*
X011977Y001232D01*
X011941Y001261D01*
X011907Y001294D01*
X011876Y001329D01*
X011848Y001366D01*
X011824Y001406D01*
X011803Y001448D01*
X011785Y001491D01*
X011772Y001536D01*
X011762Y001582D01*
X011756Y001628D01*
X011754Y001675D01*
D11*
X011155Y001675D02*
X011157Y001742D01*
X011163Y001810D01*
X011173Y001877D01*
X011187Y001943D01*
X011204Y002008D01*
X011226Y002072D01*
X011251Y002135D01*
X011280Y002196D01*
X011312Y002255D01*
X011348Y002312D01*
X011387Y002367D01*
X011429Y002420D01*
X011474Y002470D01*
X011522Y002517D01*
X011573Y002562D01*
X011626Y002603D01*
X011682Y002642D01*
X011740Y002677D01*
X011800Y002708D01*
X011861Y002736D01*
X011924Y002760D01*
X011988Y002781D01*
X012054Y002797D01*
X012120Y002810D01*
X012187Y002819D01*
X012254Y002824D01*
X012322Y002825D01*
X012389Y002822D01*
X012456Y002815D01*
X012523Y002804D01*
X012589Y002789D01*
X012654Y002771D01*
X012718Y002748D01*
X012780Y002722D01*
X012841Y002693D01*
X012899Y002659D01*
X012956Y002623D01*
X013011Y002583D01*
X013063Y002540D01*
X013112Y002494D01*
X013159Y002445D01*
X013203Y002394D01*
X013243Y002340D01*
X013281Y002284D01*
X013315Y002225D01*
X013345Y002165D01*
X013372Y002103D01*
X013396Y002040D01*
X013415Y001975D01*
X013431Y001910D01*
X013443Y001843D01*
X013451Y001776D01*
X013455Y001709D01*
X013455Y001641D01*
X013451Y001574D01*
X013443Y001507D01*
X013431Y001440D01*
X013415Y001375D01*
X013396Y001310D01*
X013372Y001247D01*
X013345Y001185D01*
X013315Y001125D01*
X013281Y001066D01*
X013243Y001010D01*
X013203Y000956D01*
X013159Y000905D01*
X013112Y000856D01*
X013063Y000810D01*
X013011Y000767D01*
X012956Y000727D01*
X012899Y000691D01*
X012841Y000657D01*
X012780Y000628D01*
X012718Y000602D01*
X012654Y000579D01*
X012589Y000561D01*
X012523Y000546D01*
X012456Y000535D01*
X012389Y000528D01*
X012322Y000525D01*
X012254Y000526D01*
X012187Y000531D01*
X012120Y000540D01*
X012054Y000553D01*
X011988Y000569D01*
X011924Y000590D01*
X011861Y000614D01*
X011800Y000642D01*
X011740Y000673D01*
X011682Y000708D01*
X011626Y000747D01*
X011573Y000788D01*
X011522Y000833D01*
X011474Y000880D01*
X011429Y000930D01*
X011387Y000983D01*
X011348Y001038D01*
X011312Y001095D01*
X011280Y001154D01*
X011251Y001215D01*
X011226Y001278D01*
X011204Y001342D01*
X011187Y001407D01*
X011173Y001473D01*
X011163Y001540D01*
X011157Y001608D01*
X011155Y001675D01*
X007598Y005313D02*
X007848Y005563D01*
X007848Y006063D01*
X007598Y006313D01*
X007098Y006313D01*
X006848Y006063D01*
X006848Y005563D01*
X007098Y005313D01*
X007598Y005313D01*
X006848Y005563D02*
X006598Y005313D01*
X006098Y005313D01*
X005848Y005563D01*
X005848Y006063D01*
X006098Y006313D01*
X006598Y006313D01*
X006848Y006063D01*
X006280Y008504D02*
X007480Y008504D01*
X007480Y009404D01*
X007530Y009404D01*
X007530Y008504D01*
X007480Y008504D01*
X007480Y009404D02*
X006280Y009404D01*
X006280Y008504D01*
X006230Y008504D01*
X006230Y009404D01*
X006280Y009404D01*
X004387Y007393D02*
X004387Y007293D01*
X004337Y007243D01*
X004337Y006343D01*
X004387Y006293D01*
X004387Y006193D01*
X004385Y006176D01*
X004381Y006159D01*
X004374Y006143D01*
X004364Y006129D01*
X004351Y006116D01*
X004337Y006106D01*
X004321Y006099D01*
X004304Y006095D01*
X004287Y006093D01*
X003787Y006093D02*
X003770Y006095D01*
X003753Y006099D01*
X003737Y006106D01*
X003723Y006116D01*
X003710Y006129D01*
X003700Y006143D01*
X003693Y006159D01*
X003689Y006176D01*
X003687Y006193D01*
X003687Y006293D01*
X003737Y006343D01*
X003737Y007243D01*
X003687Y007293D01*
X003687Y007393D01*
X003689Y007410D01*
X003693Y007427D01*
X003700Y007443D01*
X003710Y007457D01*
X003723Y007470D01*
X003737Y007480D01*
X003753Y007487D01*
X003770Y007491D01*
X003787Y007493D01*
X004287Y007493D02*
X004304Y007491D01*
X004321Y007487D01*
X004337Y007480D01*
X004351Y007470D01*
X004364Y007457D01*
X004374Y007443D01*
X004381Y007427D01*
X004385Y007410D01*
X004387Y007393D01*
X000525Y016242D02*
X000527Y016309D01*
X000533Y016377D01*
X000543Y016444D01*
X000557Y016510D01*
X000574Y016575D01*
X000596Y016639D01*
X000621Y016702D01*
X000650Y016763D01*
X000682Y016822D01*
X000718Y016879D01*
X000757Y016934D01*
X000799Y016987D01*
X000844Y017037D01*
X000892Y017084D01*
X000943Y017129D01*
X000996Y017170D01*
X001052Y017209D01*
X001110Y017244D01*
X001170Y017275D01*
X001231Y017303D01*
X001294Y017327D01*
X001358Y017348D01*
X001424Y017364D01*
X001490Y017377D01*
X001557Y017386D01*
X001624Y017391D01*
X001692Y017392D01*
X001759Y017389D01*
X001826Y017382D01*
X001893Y017371D01*
X001959Y017356D01*
X002024Y017338D01*
X002088Y017315D01*
X002150Y017289D01*
X002211Y017260D01*
X002269Y017226D01*
X002326Y017190D01*
X002381Y017150D01*
X002433Y017107D01*
X002482Y017061D01*
X002529Y017012D01*
X002573Y016961D01*
X002613Y016907D01*
X002651Y016851D01*
X002685Y016792D01*
X002715Y016732D01*
X002742Y016670D01*
X002766Y016607D01*
X002785Y016542D01*
X002801Y016477D01*
X002813Y016410D01*
X002821Y016343D01*
X002825Y016276D01*
X002825Y016208D01*
X002821Y016141D01*
X002813Y016074D01*
X002801Y016007D01*
X002785Y015942D01*
X002766Y015877D01*
X002742Y015814D01*
X002715Y015752D01*
X002685Y015692D01*
X002651Y015633D01*
X002613Y015577D01*
X002573Y015523D01*
X002529Y015472D01*
X002482Y015423D01*
X002433Y015377D01*
X002381Y015334D01*
X002326Y015294D01*
X002269Y015258D01*
X002211Y015224D01*
X002150Y015195D01*
X002088Y015169D01*
X002024Y015146D01*
X001959Y015128D01*
X001893Y015113D01*
X001826Y015102D01*
X001759Y015095D01*
X001692Y015092D01*
X001624Y015093D01*
X001557Y015098D01*
X001490Y015107D01*
X001424Y015120D01*
X001358Y015136D01*
X001294Y015157D01*
X001231Y015181D01*
X001170Y015209D01*
X001110Y015240D01*
X001052Y015275D01*
X000996Y015314D01*
X000943Y015355D01*
X000892Y015400D01*
X000844Y015447D01*
X000799Y015497D01*
X000757Y015550D01*
X000718Y015605D01*
X000682Y015662D01*
X000650Y015721D01*
X000621Y015782D01*
X000596Y015845D01*
X000574Y015909D01*
X000557Y015974D01*
X000543Y016040D01*
X000533Y016107D01*
X000527Y016175D01*
X000525Y016242D01*
D12*
X006880Y008954D03*
D13*
X006784Y008280D02*
X007009Y008280D01*
X007084Y008205D01*
X007084Y007904D01*
X007009Y007829D01*
X006784Y007829D01*
X006784Y008280D01*
X007244Y008130D02*
X007394Y008280D01*
X007394Y007829D01*
X007244Y007829D02*
X007544Y007829D01*
X006914Y007008D02*
X006914Y006558D01*
X006764Y006558D02*
X007064Y006558D01*
X006764Y006858D02*
X006914Y007008D01*
X006604Y006933D02*
X006604Y006783D01*
X006529Y006708D01*
X006303Y006708D01*
X006303Y006558D02*
X006303Y007008D01*
X006529Y007008D01*
X006604Y006933D01*
X006143Y007008D02*
X005993Y007008D01*
X006068Y007008D02*
X006068Y006633D01*
X005993Y006558D01*
X005918Y006558D01*
X005843Y006633D01*
D14*
X011714Y001675D02*
X011716Y001723D01*
X011722Y001771D01*
X011732Y001818D01*
X011745Y001864D01*
X011763Y001909D01*
X011783Y001953D01*
X011808Y001995D01*
X011836Y002034D01*
X011866Y002071D01*
X011900Y002105D01*
X011937Y002137D01*
X011975Y002166D01*
X012016Y002191D01*
X012059Y002213D01*
X012104Y002231D01*
X012150Y002245D01*
X012197Y002256D01*
X012245Y002263D01*
X012293Y002266D01*
X012341Y002265D01*
X012389Y002260D01*
X012437Y002251D01*
X012483Y002239D01*
X012528Y002222D01*
X012572Y002202D01*
X012614Y002179D01*
X012654Y002152D01*
X012692Y002122D01*
X012727Y002089D01*
X012759Y002053D01*
X012789Y002015D01*
X012815Y001974D01*
X012837Y001931D01*
X012857Y001887D01*
X012872Y001842D01*
X012884Y001795D01*
X012892Y001747D01*
X012896Y001699D01*
X012896Y001651D01*
X012892Y001603D01*
X012884Y001555D01*
X012872Y001508D01*
X012857Y001463D01*
X012837Y001419D01*
X012815Y001376D01*
X012789Y001335D01*
X012759Y001297D01*
X012727Y001261D01*
X012692Y001228D01*
X012654Y001198D01*
X012614Y001171D01*
X012572Y001148D01*
X012528Y001128D01*
X012483Y001111D01*
X012437Y001099D01*
X012389Y001090D01*
X012341Y001085D01*
X012293Y001084D01*
X012245Y001087D01*
X012197Y001094D01*
X012150Y001105D01*
X012104Y001119D01*
X012059Y001137D01*
X012016Y001159D01*
X011975Y001184D01*
X011937Y001213D01*
X011900Y001245D01*
X011866Y001279D01*
X011836Y001316D01*
X011808Y001355D01*
X011783Y001397D01*
X011763Y001441D01*
X011745Y001486D01*
X011732Y001532D01*
X011722Y001579D01*
X011716Y001627D01*
X011714Y001675D01*
X001084Y016242D02*
X001086Y016290D01*
X001092Y016338D01*
X001102Y016385D01*
X001115Y016431D01*
X001133Y016476D01*
X001153Y016520D01*
X001178Y016562D01*
X001206Y016601D01*
X001236Y016638D01*
X001270Y016672D01*
X001307Y016704D01*
X001345Y016733D01*
X001386Y016758D01*
X001429Y016780D01*
X001474Y016798D01*
X001520Y016812D01*
X001567Y016823D01*
X001615Y016830D01*
X001663Y016833D01*
X001711Y016832D01*
X001759Y016827D01*
X001807Y016818D01*
X001853Y016806D01*
X001898Y016789D01*
X001942Y016769D01*
X001984Y016746D01*
X002024Y016719D01*
X002062Y016689D01*
X002097Y016656D01*
X002129Y016620D01*
X002159Y016582D01*
X002185Y016541D01*
X002207Y016498D01*
X002227Y016454D01*
X002242Y016409D01*
X002254Y016362D01*
X002262Y016314D01*
X002266Y016266D01*
X002266Y016218D01*
X002262Y016170D01*
X002254Y016122D01*
X002242Y016075D01*
X002227Y016030D01*
X002207Y015986D01*
X002185Y015943D01*
X002159Y015902D01*
X002129Y015864D01*
X002097Y015828D01*
X002062Y015795D01*
X002024Y015765D01*
X001984Y015738D01*
X001942Y015715D01*
X001898Y015695D01*
X001853Y015678D01*
X001807Y015666D01*
X001759Y015657D01*
X001711Y015652D01*
X001663Y015651D01*
X001615Y015654D01*
X001567Y015661D01*
X001520Y015672D01*
X001474Y015686D01*
X001429Y015704D01*
X001386Y015726D01*
X001345Y015751D01*
X001307Y015780D01*
X001270Y015812D01*
X001236Y015846D01*
X001206Y015883D01*
X001178Y015922D01*
X001153Y015964D01*
X001133Y016008D01*
X001115Y016053D01*
X001102Y016099D01*
X001092Y016146D01*
X001086Y016194D01*
X001084Y016242D01*
D15*
X003265Y006616D02*
X003207Y006557D01*
X003207Y006440D01*
X003265Y006382D01*
X003265Y006256D02*
X003207Y006198D01*
X003207Y006023D01*
X003557Y006023D01*
X003440Y006023D02*
X003440Y006198D01*
X003382Y006256D01*
X003265Y006256D01*
X003440Y006140D02*
X003557Y006256D01*
X003557Y006382D02*
X003323Y006616D01*
X003265Y006616D01*
X003557Y006616D02*
X003557Y006382D01*
M02*
