G75*
%MOIN*%
%OFA0B0*%
%FSLAX24Y24*%
%IPPOS*%
%LPD*%
%AMOC8*
5,1,8,0,0,1.08239X$1,22.5*
%
%ADD10C,0.0000*%
D10*
X000100Y000100D02*
X013880Y000100D01*
X013880Y017817D01*
X000100Y017817D01*
X000100Y000100D01*
X006242Y001675D02*
X006244Y001722D01*
X006250Y001768D01*
X006260Y001814D01*
X006273Y001859D01*
X006291Y001902D01*
X006312Y001944D01*
X006336Y001984D01*
X006364Y002021D01*
X006395Y002056D01*
X006429Y002089D01*
X006465Y002118D01*
X006504Y002144D01*
X006545Y002167D01*
X006588Y002186D01*
X006632Y002202D01*
X006677Y002214D01*
X006723Y002222D01*
X006770Y002226D01*
X006816Y002226D01*
X006863Y002222D01*
X006909Y002214D01*
X006954Y002202D01*
X006998Y002186D01*
X007041Y002167D01*
X007082Y002144D01*
X007121Y002118D01*
X007157Y002089D01*
X007191Y002056D01*
X007222Y002021D01*
X007250Y001984D01*
X007274Y001944D01*
X007295Y001902D01*
X007313Y001859D01*
X007326Y001814D01*
X007336Y001768D01*
X007342Y001722D01*
X007344Y001675D01*
X007342Y001628D01*
X007336Y001582D01*
X007326Y001536D01*
X007313Y001491D01*
X007295Y001448D01*
X007274Y001406D01*
X007250Y001366D01*
X007222Y001329D01*
X007191Y001294D01*
X007157Y001261D01*
X007121Y001232D01*
X007082Y001206D01*
X007041Y001183D01*
X006998Y001164D01*
X006954Y001148D01*
X006909Y001136D01*
X006863Y001128D01*
X006816Y001124D01*
X006770Y001124D01*
X006723Y001128D01*
X006677Y001136D01*
X006632Y001148D01*
X006588Y001164D01*
X006545Y001183D01*
X006504Y001206D01*
X006465Y001232D01*
X006429Y001261D01*
X006395Y001294D01*
X006364Y001329D01*
X006336Y001366D01*
X006312Y001406D01*
X006291Y001448D01*
X006273Y001491D01*
X006260Y001536D01*
X006250Y001582D01*
X006244Y001628D01*
X006242Y001675D01*
X006242Y004037D02*
X006244Y004084D01*
X006250Y004130D01*
X006260Y004176D01*
X006273Y004221D01*
X006291Y004264D01*
X006312Y004306D01*
X006336Y004346D01*
X006364Y004383D01*
X006395Y004418D01*
X006429Y004451D01*
X006465Y004480D01*
X006504Y004506D01*
X006545Y004529D01*
X006588Y004548D01*
X006632Y004564D01*
X006677Y004576D01*
X006723Y004584D01*
X006770Y004588D01*
X006816Y004588D01*
X006863Y004584D01*
X006909Y004576D01*
X006954Y004564D01*
X006998Y004548D01*
X007041Y004529D01*
X007082Y004506D01*
X007121Y004480D01*
X007157Y004451D01*
X007191Y004418D01*
X007222Y004383D01*
X007250Y004346D01*
X007274Y004306D01*
X007295Y004264D01*
X007313Y004221D01*
X007326Y004176D01*
X007336Y004130D01*
X007342Y004084D01*
X007344Y004037D01*
X007342Y003990D01*
X007336Y003944D01*
X007326Y003898D01*
X007313Y003853D01*
X007295Y003810D01*
X007274Y003768D01*
X007250Y003728D01*
X007222Y003691D01*
X007191Y003656D01*
X007157Y003623D01*
X007121Y003594D01*
X007082Y003568D01*
X007041Y003545D01*
X006998Y003526D01*
X006954Y003510D01*
X006909Y003498D01*
X006863Y003490D01*
X006816Y003486D01*
X006770Y003486D01*
X006723Y003490D01*
X006677Y003498D01*
X006632Y003510D01*
X006588Y003526D01*
X006545Y003545D01*
X006504Y003568D01*
X006465Y003594D01*
X006429Y003623D01*
X006395Y003656D01*
X006364Y003691D01*
X006336Y003728D01*
X006312Y003768D01*
X006291Y003810D01*
X006273Y003853D01*
X006260Y003898D01*
X006250Y003944D01*
X006244Y003990D01*
X006242Y004037D01*
X006163Y011124D02*
X006165Y011174D01*
X006171Y011224D01*
X006181Y011273D01*
X006195Y011321D01*
X006212Y011368D01*
X006233Y011413D01*
X006258Y011457D01*
X006286Y011498D01*
X006318Y011537D01*
X006352Y011574D01*
X006389Y011608D01*
X006429Y011638D01*
X006471Y011665D01*
X006515Y011689D01*
X006561Y011710D01*
X006608Y011726D01*
X006656Y011739D01*
X006706Y011748D01*
X006755Y011753D01*
X006806Y011754D01*
X006856Y011751D01*
X006905Y011744D01*
X006954Y011733D01*
X007002Y011718D01*
X007048Y011700D01*
X007093Y011678D01*
X007136Y011652D01*
X007177Y011623D01*
X007216Y011591D01*
X007252Y011556D01*
X007284Y011518D01*
X007314Y011478D01*
X007341Y011435D01*
X007364Y011391D01*
X007383Y011345D01*
X007399Y011297D01*
X007411Y011248D01*
X007419Y011199D01*
X007423Y011149D01*
X007423Y011099D01*
X007419Y011049D01*
X007411Y011000D01*
X007399Y010951D01*
X007383Y010903D01*
X007364Y010857D01*
X007341Y010813D01*
X007314Y010770D01*
X007284Y010730D01*
X007252Y010692D01*
X007216Y010657D01*
X007177Y010625D01*
X007136Y010596D01*
X007093Y010570D01*
X007048Y010548D01*
X007002Y010530D01*
X006954Y010515D01*
X006905Y010504D01*
X006856Y010497D01*
X006806Y010494D01*
X006755Y010495D01*
X006706Y010500D01*
X006656Y010509D01*
X006608Y010522D01*
X006561Y010538D01*
X006515Y010559D01*
X006471Y010583D01*
X006429Y010610D01*
X006389Y010640D01*
X006352Y010674D01*
X006318Y010711D01*
X006286Y010750D01*
X006258Y010791D01*
X006233Y010835D01*
X006212Y010880D01*
X006195Y010927D01*
X006181Y010975D01*
X006171Y011024D01*
X006165Y011074D01*
X006163Y011124D01*
X001124Y016242D02*
X001126Y016289D01*
X001132Y016335D01*
X001142Y016381D01*
X001155Y016426D01*
X001173Y016469D01*
X001194Y016511D01*
X001218Y016551D01*
X001246Y016588D01*
X001277Y016623D01*
X001311Y016656D01*
X001347Y016685D01*
X001386Y016711D01*
X001427Y016734D01*
X001470Y016753D01*
X001514Y016769D01*
X001559Y016781D01*
X001605Y016789D01*
X001652Y016793D01*
X001698Y016793D01*
X001745Y016789D01*
X001791Y016781D01*
X001836Y016769D01*
X001880Y016753D01*
X001923Y016734D01*
X001964Y016711D01*
X002003Y016685D01*
X002039Y016656D01*
X002073Y016623D01*
X002104Y016588D01*
X002132Y016551D01*
X002156Y016511D01*
X002177Y016469D01*
X002195Y016426D01*
X002208Y016381D01*
X002218Y016335D01*
X002224Y016289D01*
X002226Y016242D01*
X002224Y016195D01*
X002218Y016149D01*
X002208Y016103D01*
X002195Y016058D01*
X002177Y016015D01*
X002156Y015973D01*
X002132Y015933D01*
X002104Y015896D01*
X002073Y015861D01*
X002039Y015828D01*
X002003Y015799D01*
X001964Y015773D01*
X001923Y015750D01*
X001880Y015731D01*
X001836Y015715D01*
X001791Y015703D01*
X001745Y015695D01*
X001698Y015691D01*
X001652Y015691D01*
X001605Y015695D01*
X001559Y015703D01*
X001514Y015715D01*
X001470Y015731D01*
X001427Y015750D01*
X001386Y015773D01*
X001347Y015799D01*
X001311Y015828D01*
X001277Y015861D01*
X001246Y015896D01*
X001218Y015933D01*
X001194Y015973D01*
X001173Y016015D01*
X001155Y016058D01*
X001142Y016103D01*
X001132Y016149D01*
X001126Y016195D01*
X001124Y016242D01*
X011754Y001675D02*
X011756Y001722D01*
X011762Y001768D01*
X011772Y001814D01*
X011785Y001859D01*
X011803Y001902D01*
X011824Y001944D01*
X011848Y001984D01*
X011876Y002021D01*
X011907Y002056D01*
X011941Y002089D01*
X011977Y002118D01*
X012016Y002144D01*
X012057Y002167D01*
X012100Y002186D01*
X012144Y002202D01*
X012189Y002214D01*
X012235Y002222D01*
X012282Y002226D01*
X012328Y002226D01*
X012375Y002222D01*
X012421Y002214D01*
X012466Y002202D01*
X012510Y002186D01*
X012553Y002167D01*
X012594Y002144D01*
X012633Y002118D01*
X012669Y002089D01*
X012703Y002056D01*
X012734Y002021D01*
X012762Y001984D01*
X012786Y001944D01*
X012807Y001902D01*
X012825Y001859D01*
X012838Y001814D01*
X012848Y001768D01*
X012854Y001722D01*
X012856Y001675D01*
X012854Y001628D01*
X012848Y001582D01*
X012838Y001536D01*
X012825Y001491D01*
X012807Y001448D01*
X012786Y001406D01*
X012762Y001366D01*
X012734Y001329D01*
X012703Y001294D01*
X012669Y001261D01*
X012633Y001232D01*
X012594Y001206D01*
X012553Y001183D01*
X012510Y001164D01*
X012466Y001148D01*
X012421Y001136D01*
X012375Y001128D01*
X012328Y001124D01*
X012282Y001124D01*
X012235Y001128D01*
X012189Y001136D01*
X012144Y001148D01*
X012100Y001164D01*
X012057Y001183D01*
X012016Y001206D01*
X011977Y001232D01*
X011941Y001261D01*
X011907Y001294D01*
X011876Y001329D01*
X011848Y001366D01*
X011824Y001406D01*
X011803Y001448D01*
X011785Y001491D01*
X011772Y001536D01*
X011762Y001582D01*
X011756Y001628D01*
X011754Y001675D01*
M02*
