G75*
%MOIN*%
%OFA0B0*%
%FSLAX24Y24*%
%IPPOS*%
%LPD*%
%AMOC8*
5,1,8,0,0,1.08239X$1,22.5*
%
%ADD10C,0.0520*%
%ADD11C,0.0600*%
%ADD12OC8,0.0520*%
%ADD13C,0.0320*%
%ADD14C,0.0100*%
D10*
X005880Y008694D02*
X005880Y009214D01*
X007880Y009214D02*
X007880Y008694D01*
D11*
X007348Y006113D02*
X007348Y005513D01*
X006348Y005513D02*
X006348Y006113D01*
D12*
X004037Y005793D03*
X004037Y007793D03*
D13*
X000660Y000660D02*
X000660Y015078D01*
X000758Y014980D01*
X001193Y014758D01*
X001675Y014682D01*
X001675Y014682D01*
X002157Y014758D01*
X002592Y014980D01*
X002937Y015325D01*
X003158Y015760D01*
X003235Y016242D01*
X003158Y016724D01*
X002937Y017159D01*
X002839Y017257D01*
X013320Y017257D01*
X013320Y002839D01*
X013222Y002937D01*
X013222Y002937D01*
X012787Y003158D01*
X012787Y003158D01*
X012305Y003235D01*
X012305Y003235D01*
X011823Y003158D01*
X011388Y002937D01*
X011388Y002937D01*
X011043Y002592D01*
X010821Y002157D01*
X010821Y002157D01*
X010745Y001675D01*
X010821Y001193D01*
X010821Y001193D01*
X011043Y000758D01*
X011141Y000660D01*
X007258Y000660D01*
X007475Y000786D01*
X007682Y000993D01*
X007828Y001246D01*
X007904Y001529D01*
X007904Y001821D01*
X007828Y002104D01*
X007682Y002357D01*
X007475Y002564D01*
X007222Y002710D01*
X006939Y002786D01*
X006647Y002786D01*
X006364Y002710D01*
X006111Y002564D01*
X005904Y002357D01*
X005757Y002104D01*
X005682Y001821D01*
X005682Y001529D01*
X005757Y001246D01*
X005904Y000993D01*
X006111Y000786D01*
X006328Y000660D01*
X000660Y000660D01*
X000660Y000737D02*
X006195Y000737D01*
X005867Y001056D02*
X000660Y001056D01*
X000660Y001374D02*
X005723Y001374D01*
X005682Y001693D02*
X000660Y001693D01*
X000660Y002011D02*
X005733Y002011D01*
X005888Y002330D02*
X000660Y002330D01*
X000660Y002648D02*
X006256Y002648D01*
X006364Y003002D02*
X006647Y002926D01*
X006939Y002926D01*
X007222Y003002D01*
X007475Y003148D01*
X007682Y003355D01*
X007828Y003608D01*
X007904Y003891D01*
X007904Y004183D01*
X007828Y004466D01*
X007682Y004719D01*
X007475Y004926D01*
X007395Y004973D01*
X007455Y004973D01*
X007654Y005055D01*
X007806Y005207D01*
X007888Y005405D01*
X007888Y005787D01*
X008219Y006118D01*
X008280Y006265D01*
X008280Y008387D01*
X008303Y008411D01*
X008380Y008595D01*
X008380Y009314D01*
X008303Y009498D01*
X008163Y009638D01*
X007979Y009714D01*
X007780Y009714D01*
X007596Y009638D01*
X007456Y009498D01*
X007380Y009314D01*
X007380Y008595D01*
X007456Y008411D01*
X007480Y008387D01*
X007480Y006643D01*
X007455Y006653D01*
X007241Y006653D01*
X007042Y006570D01*
X006890Y006418D01*
X006848Y006317D01*
X006806Y006418D01*
X006654Y006570D01*
X006455Y006653D01*
X006241Y006653D01*
X006042Y006570D01*
X005890Y006418D01*
X005808Y006220D01*
X005808Y006213D01*
X004324Y006213D01*
X004244Y006293D01*
X003830Y006293D01*
X003537Y006000D01*
X003537Y005586D01*
X003830Y005293D01*
X004244Y005293D01*
X004364Y005413D01*
X005808Y005413D01*
X005808Y005405D01*
X005890Y005207D01*
X006042Y005055D01*
X006212Y004985D01*
X006111Y004926D01*
X005904Y004719D01*
X005757Y004466D01*
X005682Y004183D01*
X005682Y003891D01*
X005757Y003608D01*
X005904Y003355D01*
X006111Y003148D01*
X006364Y003002D01*
X006495Y002967D02*
X000660Y002967D01*
X000660Y003285D02*
X005973Y003285D01*
X005760Y003604D02*
X000660Y003604D01*
X000660Y003922D02*
X005682Y003922D01*
X005697Y004241D02*
X000660Y004241D01*
X000660Y004559D02*
X005811Y004559D01*
X006062Y004878D02*
X000660Y004878D01*
X000660Y005196D02*
X005901Y005196D01*
X006348Y005813D02*
X004057Y005813D01*
X004037Y005793D01*
X003688Y006152D02*
X000660Y006152D01*
X000660Y006470D02*
X005942Y006470D01*
X006754Y006470D02*
X006942Y006470D01*
X007480Y006789D02*
X000660Y006789D01*
X000660Y007107D02*
X007480Y007107D01*
X007480Y007426D02*
X004377Y007426D01*
X004244Y007293D02*
X004537Y007586D01*
X004537Y008000D01*
X004437Y008100D01*
X004437Y008554D01*
X005396Y008554D01*
X005456Y008411D01*
X005596Y008270D01*
X005780Y008194D01*
X005979Y008194D01*
X006163Y008270D01*
X006303Y008411D01*
X006380Y008595D01*
X006380Y009314D01*
X006303Y009498D01*
X006163Y009638D01*
X005979Y009714D01*
X005780Y009714D01*
X005596Y009638D01*
X005456Y009498D01*
X005396Y009354D01*
X004150Y009354D01*
X004003Y009293D01*
X003810Y009101D01*
X003698Y008988D01*
X003637Y008841D01*
X003637Y008100D01*
X003537Y008000D01*
X003537Y007586D01*
X003830Y007293D01*
X004244Y007293D01*
X004537Y007744D02*
X007480Y007744D01*
X007480Y008063D02*
X004475Y008063D01*
X004437Y008381D02*
X005486Y008381D01*
X005880Y008954D02*
X004230Y008954D01*
X004037Y008761D01*
X004037Y007793D01*
X003697Y007426D02*
X000660Y007426D01*
X000660Y007744D02*
X003537Y007744D01*
X003599Y008063D02*
X000660Y008063D01*
X000660Y008381D02*
X003637Y008381D01*
X003637Y008700D02*
X000660Y008700D01*
X000660Y009018D02*
X003728Y009018D01*
X004107Y009337D02*
X000660Y009337D01*
X000660Y009655D02*
X005637Y009655D01*
X006122Y009655D02*
X007637Y009655D01*
X007389Y009337D02*
X006370Y009337D01*
X006380Y009018D02*
X007380Y009018D01*
X007380Y008700D02*
X006380Y008700D01*
X006273Y008381D02*
X007480Y008381D01*
X007880Y008954D02*
X007880Y006344D01*
X007348Y005813D01*
X007795Y005196D02*
X013320Y005196D01*
X013320Y005515D02*
X007888Y005515D01*
X007934Y005833D02*
X013320Y005833D01*
X013320Y006152D02*
X008233Y006152D01*
X008280Y006470D02*
X013320Y006470D01*
X013320Y006789D02*
X008280Y006789D01*
X008280Y007107D02*
X013320Y007107D01*
X013320Y007426D02*
X008280Y007426D01*
X008280Y007744D02*
X013320Y007744D01*
X013320Y008063D02*
X008280Y008063D01*
X008280Y008381D02*
X013320Y008381D01*
X013320Y008700D02*
X008380Y008700D01*
X008380Y009018D02*
X013320Y009018D01*
X013320Y009337D02*
X008370Y009337D01*
X008122Y009655D02*
X013320Y009655D01*
X013320Y009974D02*
X007098Y009974D01*
X006950Y009934D02*
X007252Y010015D01*
X007524Y010171D01*
X007745Y010393D01*
X007902Y010664D01*
X007983Y010967D01*
X007983Y011280D01*
X007902Y011583D01*
X007745Y011854D01*
X007524Y012076D01*
X007252Y012232D01*
X006950Y012314D01*
X006636Y012314D01*
X006334Y012232D01*
X006062Y012076D01*
X005841Y011854D01*
X005684Y011583D01*
X005603Y011280D01*
X005603Y010967D01*
X005684Y010664D01*
X005841Y010393D01*
X006062Y010171D01*
X006334Y010015D01*
X006636Y009934D01*
X006950Y009934D01*
X006488Y009974D02*
X000660Y009974D01*
X000660Y010292D02*
X005942Y010292D01*
X005715Y010611D02*
X000660Y010611D01*
X000660Y010929D02*
X005613Y010929D01*
X005603Y011248D02*
X000660Y011248D01*
X000660Y011566D02*
X005680Y011566D01*
X005871Y011885D02*
X000660Y011885D01*
X000660Y012203D02*
X006283Y012203D01*
X007303Y012203D02*
X013320Y012203D01*
X013320Y012522D02*
X000660Y012522D01*
X000660Y012840D02*
X013320Y012840D01*
X013320Y013159D02*
X000660Y013159D01*
X000660Y013477D02*
X013320Y013477D01*
X013320Y013796D02*
X000660Y013796D01*
X000660Y014114D02*
X013320Y014114D01*
X013320Y014433D02*
X000660Y014433D01*
X000660Y014751D02*
X001237Y014751D01*
X000668Y015070D02*
X000660Y015070D01*
X002112Y014751D02*
X013320Y014751D01*
X013320Y015070D02*
X002682Y015070D01*
X002592Y014980D02*
X002592Y014980D01*
X002937Y015325D02*
X002937Y015325D01*
X002969Y015388D02*
X013320Y015388D01*
X013320Y015707D02*
X003131Y015707D01*
X003158Y015760D02*
X003158Y015760D01*
X003200Y016025D02*
X013320Y016025D01*
X013320Y016344D02*
X003219Y016344D01*
X003168Y016662D02*
X013320Y016662D01*
X013320Y016981D02*
X003028Y016981D01*
X002937Y017159D02*
X002937Y017159D01*
X003158Y016724D02*
X003158Y016724D01*
X002157Y014758D02*
X002157Y014758D01*
X007644Y010292D02*
X013320Y010292D01*
X013320Y010611D02*
X007871Y010611D01*
X007973Y010929D02*
X013320Y010929D01*
X013320Y011248D02*
X007983Y011248D01*
X007906Y011566D02*
X013320Y011566D01*
X013320Y011885D02*
X007715Y011885D01*
X003537Y005833D02*
X000660Y005833D01*
X000660Y005515D02*
X003608Y005515D01*
X007091Y002967D02*
X011446Y002967D01*
X011099Y002648D02*
X007330Y002648D01*
X007698Y002330D02*
X010909Y002330D01*
X011043Y002592D02*
X011043Y002592D01*
X010798Y002011D02*
X007853Y002011D01*
X007904Y001693D02*
X010748Y001693D01*
X010745Y001675D02*
X010745Y001675D01*
X010792Y001374D02*
X007863Y001374D01*
X007718Y001056D02*
X010891Y001056D01*
X011043Y000758D02*
X011043Y000758D01*
X011064Y000737D02*
X007391Y000737D01*
X007612Y003285D02*
X013320Y003285D01*
X013320Y002967D02*
X013164Y002967D01*
X013320Y003604D02*
X007826Y003604D01*
X007904Y003922D02*
X013320Y003922D01*
X013320Y004241D02*
X007889Y004241D01*
X007775Y004559D02*
X013320Y004559D01*
X013320Y004878D02*
X007524Y004878D01*
X011823Y003158D02*
X011823Y003158D01*
D14*
X006747Y005148D02*
X006600Y005100D01*
M02*
